<?xml version="1.0" encoding="utf-8"?>
<!DOCTYPE svg PUBLIC "-//W3C//DTD SVG 1.1//EN" "http://www.w3.org/Graphics/SVG/1.1/DTD/svg11.dtd">
<svg version="1.1" id="Layer_1" xmlns="http://www.w3.org/2000/svg" xmlns:xlink="http://www.w3.org/1999/xlink" x="0px" y="0px"
	 width="287.963px" height="288.156px" viewBox="0 0 287.963 288.156" enable-background="new 0 0 287.963 288.156"
	 xml:space="preserve">
<path fill-rule="evenodd" clip-rule="evenodd" fill="#303F50" d="M118.131,285.592c-20.791-3.637-39.736-11.707-56.992-23.798
	c-15.905-11.145-28.963-25.02-39.225-41.482c-10.478-16.81-17.308-34.998-20.167-54.646c-1.093-7.515-1.855-15.044-1.736-22.646
	c0.322-20.521,4.59-40.141,13.125-58.851c7.683-16.843,18.198-31.676,31.598-44.366C66.12,19.55,91.444,6.839,120.497,2.027
	c30.88-5.115,60.504-0.53,88.43,13.553c28.35,14.299,49.68,35.904,63.949,64.26c7.498,14.9,12.078,30.733,14.074,47.381
	c2.451,20.458,0.4,40.389-5.592,60.006c-1.016,0.946-1.969,0.688-2.918-0.121c-0.914-0.778-1.764-1.625-2.609-2.473
	c-23.082-23.111-46.438-45.955-69.193-69.384c-16.145-16.624-32.709-32.821-48.936-49.358c-0.982-1-2.025-1.993-2.734-3.159
	c-0.98-1.608-2.266-2.5-4.065-2.781c-1.079-0.619-1.621-1.744-2.443-2.608c-2.939-3.093-6.182-3.029-9.005,0.211
	c-0.922,1.058-1.65,2.255-2.355,3.467c-13.67,23.489-27.121,47.104-40.702,70.644c-14.331,24.839-28.558,49.735-42.932,74.549
	c-0.601,1.038-1.131,2.116-1.635,3.205c-1.988,4.299-1.403,6.382,2.55,9.086c0.425,0.291,0.767,0.632,0.985,1.095
	c0.145,0.902,0.525,1.6,1.224,2.287c19.89,19.55,39.499,39.381,59.207,59.113C116.987,282.192,119.29,283.095,118.131,285.592z"/>
<path fill-rule="evenodd" clip-rule="evenodd" fill="#222E3B" d="M118.131,285.592c-0.937-1.033-1.831-2.108-2.816-3.095
	c-19.767-19.781-39.553-39.545-59.283-59.363c-0.696-0.699-2.558-1.155-1.363-2.871c0.643-1.319,1.896-1.321,3.089-1.396
	c1.696-0.106,3.397-0.06,5.096-0.06c54.372-0.003,108.742-0.001,163.113-0.004c1.6,0,3.201,0.064,4.797-0.066
	c5.621-0.464,7.807-4.034,5.455-9.142c-1.797-3.904-4.135-7.529-6.273-11.255c-21.133-36.834-42.393-73.595-63.531-110.426
	c-4.824-8.406-9.705-16.78-14.44-25.237c-0.664-1.187-1.652-2.418-0.188-3.74c1.389-0.264,1.902,0.942,2.626,1.666
	c16.471,16.434,33.143,32.676,49.313,49.402c24.361,25.198,49.486,49.629,74.113,74.557c1.035,1.049,1.914,2.35,3.52,2.666
	c-5.387,16.923-13.533,32.388-24.568,46.309c-14.992,18.913-33.691,32.971-55.762,42.675c-13.563,5.964-27.752,9.495-42.404,11.133
	C145.065,288.862,131.54,288.236,118.131,285.592z"/>
<path fill-rule="evenodd" clip-rule="evenodd" fill="#D3D388" d="M151.787,58.937c2.814,5.074,5.57,10.182,8.451,15.216
	c6.373,11.132,12.807,22.229,19.219,33.337c7.254,12.563,14.521,25.118,21.76,37.688c6.549,11.369,13.09,22.742,19.594,34.136
	c5.674,9.938,11.467,19.815,16.879,29.896c3.852,7.174-1.27,11.102-6.658,11.11c-8.299,0.013-16.596,0.029-24.895,0.025
	c-50.488-0.025-100.978-0.056-151.466-0.084c-6.06-2.855-7.255-5.995-3.907-12.024c6.504-11.712,13.251-23.29,19.915-34.914
	c5.835-10.178,11.683-20.349,17.544-30.512c7.237-12.55,14.513-25.078,21.736-37.636c6.585-11.448,13.105-22.933,19.687-34.382
	c2.407-4.187,4.938-8.302,7.359-12.481c3.802-6.564,10.15-6.67,13.894-0.141C151.082,58.492,151.485,58.685,151.787,58.937z"/>
<path fill-rule="evenodd" clip-rule="evenodd" fill="#2C353F" d="M206.599,198.545c-41.768,0-83.376,0-125.306,0
	c3.948-6.938,7.748-13.684,11.612-20.392c7.174-12.453,14.393-24.879,21.581-37.324c7.336-12.702,14.664-25.407,21.978-38.121
	c2.112-3.67,4.231-7.339,6.22-11.076c0.994-1.869,1.524-2.024,2.654-0.041c10.325,18.136,20.708,36.239,31.108,54.332
	c9.908,17.237,19.859,34.449,29.785,51.675C206.366,197.834,206.433,198.111,206.599,198.545z"/>
</svg>
